<svg width="16" height="16" viewBox="0 0 16 16" fill="none" xmlns="http://www.w3.org/2000/svg">
<path d="M6.00016 14.6666C6.36835 14.6666 6.66683 14.3681 6.66683 13.9999C6.66683 13.6317 6.36835 13.3333 6.00016 13.3333C5.63197 13.3333 5.3335 13.6317 5.3335 13.9999C5.3335 14.3681 5.63197 14.6666 6.00016 14.6666Z" stroke="white" stroke-width="1.33333" stroke-linecap="round" stroke-linejoin="round"/>
<path d="M13.3332 14.6666C13.7014 14.6666 13.9998 14.3681 13.9998 13.9999C13.9998 13.6317 13.7014 13.3333 13.3332 13.3333C12.965 13.3333 12.6665 13.6317 12.6665 13.9999C12.6665 14.3681 12.965 14.6666 13.3332 14.6666Z" stroke="white" stroke-width="1.33333" stroke-linecap="round" stroke-linejoin="round"/>
<path d="M0.666504 0.666748H3.33317L5.11984 9.59342C5.1808 9.90035 5.34778 10.1761 5.59153 10.3723C5.83529 10.5685 6.1403 10.6727 6.45317 10.6667H12.9332C13.246 10.6727 13.551 10.5685 13.7948 10.3723C14.0386 10.1761 14.2055 9.90035 14.2665 9.59342L15.3332 4.00008H3.99984" stroke="white" stroke-width="1.33333" stroke-linecap="round" stroke-linejoin="round"/>
</svg>
